PathFileType	4	(X/Y/Z)	E:/Microgravity/Neeraj_13_07_24_t02 _without_weight_pp.trc	
DataRate	CameraRate	NumFrames	NumMarkers	Units	OrigDataRate	OrigDataStartFrame	OrigNumFrames	
120.00	120.00	66	5	m	120.00	1765	7058	
Frame#	Time	RHAND			r_radius_styloid			RWRB			r_humerus_epicondyle			r_acromion			
		X1	Y1	Z1	X2	Y2	Z2	X3	Y3	Z3	X4	Y4	Z4	X5	Y5	Z5	

1765	14.700	0.30010	1.29748	0.22256	0.20918	1.26179	0.27679	0.24277	1.20818	0.19974	-0.00319	1.18995	0.26566	-0.01283	1.52225	0.18244 
1766	14.708	0.29970	1.29829	0.22240	0.20889	1.26240	0.27668	0.24258	1.20885	0.19964	-0.00328	1.19005	0.26567	-0.01290	1.52225	0.18243 
1767	14.717	0.29929	1.29909	0.22225	0.20859	1.26300	0.27656	0.24239	1.20951	0.19955	-0.00337	1.19014	0.26568	-0.01297	1.52225	0.18242 
1768	14.725	0.29889	1.29987	0.22210	0.20829	1.26360	0.27644	0.24219	1.21016	0.19946	-0.00347	1.19023	0.26569	-0.01304	1.52225	0.18241 
1769	14.733	0.29849	1.30063	0.22196	0.20798	1.26420	0.27632	0.24199	1.21079	0.19938	-0.00356	1.19033	0.26570	-0.01311	1.52226	0.18240 
1770	14.742	0.29809	1.30138	0.22182	0.20768	1.26479	0.27620	0.24179	1.21139	0.19930	-0.00366	1.19042	0.26571	-0.01319	1.52226	0.18238 
1771	14.750	0.29769	1.30210	0.22169	0.20738	1.26538	0.27608	0.24161	1.21199	0.19922	-0.00376	1.19052	0.26571	-0.01326	1.52225	0.18237 
1772	14.758	0.29729	1.30279	0.22157	0.20709	1.26597	0.27595	0.24142	1.21257	0.19914	-0.00386	1.19061	0.26572	-0.01334	1.52225	0.18235 
1773	14.767	0.29689	1.30345	0.22147	0.20679	1.26655	0.27582	0.24124	1.21314	0.19907	-0.00397	1.19070	0.26572	-0.01343	1.52224	0.18234 
1774	14.775	0.29650	1.30411	0.22135	0.20650	1.26712	0.27569	0.24105	1.21369	0.19901	-0.00407	1.19078	0.26572	-0.01351	1.52223	0.18232 
1775	14.783	0.29611	1.30477	0.22123	0.20621	1.26768	0.27557	0.24087	1.21424	0.19893	-0.00417	1.19087	0.26572	-0.01359	1.52222	0.18230 
1776	14.792	0.29571	1.30544	0.22109	0.20591	1.26823	0.27545	0.24069	1.21479	0.19886	-0.00427	1.19095	0.26572	-0.01368	1.52221	0.18228 
1777	14.800	0.29531	1.30612	0.22096	0.20562	1.26877	0.27533	0.24051	1.21535	0.19877	-0.00437	1.19102	0.26572	-0.01376	1.52219	0.18225 
1778	14.808	0.29491	1.30679	0.22082	0.20532	1.26929	0.27522	0.24032	1.21590	0.19869	-0.00447	1.19109	0.26572	-0.01384	1.52217	0.18223 
1779	14.817	0.29451	1.30747	0.22068	0.20502	1.26980	0.27511	0.24014	1.21645	0.19860	-0.00458	1.19115	0.26571	-0.01391	1.52216	0.18221 
1780	14.825	0.29411	1.30814	0.22055	0.20471	1.27029	0.27500	0.23995	1.21699	0.19850	-0.00468	1.19122	0.26570	-0.01397	1.52214	0.18220 
1781	14.833	0.29371	1.30882	0.22041	0.20441	1.27079	0.27490	0.23975	1.21753	0.19840	-0.00479	1.19128	0.26570	-0.01403	1.52213	0.18218 
1782	14.842	0.29333	1.30949	0.22028	0.20411	1.27129	0.27479	0.23954	1.21807	0.19829	-0.00490	1.19134	0.26569	-0.01409	1.52212	0.18217 
1783	14.850	0.29294	1.31017	0.22015	0.20381	1.27179	0.27468	0.23933	1.21863	0.19817	-0.00501	1.19140	0.26568	-0.01414	1.52210	0.18215 
1784	14.858	0.29255	1.31084	0.22002	0.20350	1.27229	0.27457	0.23911	1.21922	0.19805	-0.00513	1.19146	0.26567	-0.01420	1.52208	0.18213 
1785	14.867	0.29216	1.31150	0.21988	0.20320	1.27279	0.27447	0.23889	1.21980	0.19793	-0.00524	1.19152	0.26565	-0.01426	1.52207	0.18212 
1786	14.875	0.29177	1.31216	0.21973	0.20290	1.27329	0.27436	0.23868	1.22036	0.19782	-0.00535	1.19158	0.26564	-0.01431	1.52205	0.18211 
1787	14.883	0.29137	1.31282	0.21959	0.20260	1.27379	0.27426	0.23847	1.22090	0.19771	-0.00547	1.19163	0.26562	-0.01436	1.52204	0.18210 
1788	14.892	0.29097	1.31346	0.21945	0.20230	1.27429	0.27416	0.23826	1.22142	0.19762	-0.00558	1.19169	0.26561	-0.01441	1.52203	0.18210 
1789	14.900	0.29057	1.31410	0.21930	0.20200	1.27478	0.27405	0.23806	1.22193	0.19753	-0.00568	1.19175	0.26560	-0.01446	1.52202	0.18209 
1790	14.908	0.29018	1.31473	0.21917	0.20169	1.27527	0.27395	0.23787	1.22242	0.19744	-0.00578	1.19181	0.26558	-0.01451	1.52201	0.18208 
1791	14.917	0.28980	1.31536	0.21903	0.20139	1.27575	0.27385	0.23768	1.22290	0.19737	-0.00588	1.19187	0.26557	-0.01457	1.52200	0.18207 
1792	14.925	0.28943	1.31597	0.21890	0.20110	1.27622	0.27374	0.23750	1.22338	0.19729	-0.00597	1.19192	0.26556	-0.01462	1.52199	0.18206 
1793	14.933	0.28907	1.31658	0.21877	0.20082	1.27669	0.27363	0.23733	1.22385	0.19723	-0.00606	1.19198	0.26555	-0.01467	1.52198	0.18205 
1794	14.942	0.28873	1.31717	0.21864	0.20054	1.27714	0.27353	0.23717	1.22431	0.19717	-0.00615	1.19204	0.26553	-0.01472	1.52197	0.18203 
1795	14.950	0.28839	1.31775	0.21852	0.20027	1.27758	0.27343	0.23701	1.22476	0.19711	-0.00623	1.19209	0.26552	-0.01478	1.52196	0.18201 
1796	14.958	0.28807	1.31832	0.21841	0.20002	1.27802	0.27333	0.23685	1.22522	0.19705	-0.00630	1.19215	0.26550	-0.01484	1.52195	0.18199 
1797	14.967	0.28776	1.31888	0.21830	0.19978	1.27844	0.27324	0.23669	1.22570	0.19699	-0.00637	1.19220	0.26549	-0.01490	1.52194	0.18197 
1798	14.975	0.28745	1.31942	0.21820	0.19954	1.27885	0.27316	0.23654	1.22619	0.19692	-0.00644	1.19225	0.26548	-0.01495	1.52193	0.18195 
1799	14.983	0.28715	1.31994	0.21811	0.19931	1.27925	0.27308	0.23639	1.22665	0.19686	-0.00649	1.19230	0.26547	-0.01501	1.52192	0.18192 
1800	14.992	0.28686	1.32046	0.21803	0.19910	1.27964	0.27301	0.23626	1.22710	0.19680	-0.00654	1.19235	0.26545	-0.01507	1.52192	0.18190 
1801	15.000	0.28658	1.32095	0.21795	0.19889	1.28002	0.27295	0.23615	1.22752	0.19675	-0.00659	1.19240	0.26544	-0.01512	1.52191	0.18188 
1802	15.008	0.28631	1.32144	0.21788	0.19869	1.28038	0.27289	0.23604	1.22793	0.19670	-0.00663	1.19245	0.26543	-0.01516	1.52190	0.18186 
1803	15.017	0.28605	1.32191	0.21781	0.19850	1.28074	0.27283	0.23594	1.22834	0.19666	-0.00667	1.19249	0.26542	-0.01521	1.52189	0.18184 
1804	15.025	0.28580	1.32238	0.21775	0.19831	1.28108	0.27278	0.23585	1.22873	0.19663	-0.00670	1.19254	0.26541	-0.01525	1.52188	0.18182 
1805	15.033	0.28557	1.32283	0.21768	0.19814	1.28142	0.27273	0.23576	1.22913	0.19661	-0.00673	1.19258	0.26540	-0.01529	1.52187	0.18180 
1806	15.042	0.28535	1.32328	0.21762	0.19797	1.28175	0.27268	0.23568	1.22952	0.19659	-0.00675	1.19262	0.26539	-0.01532	1.52186	0.18178 
1807	15.050	0.28514	1.32372	0.21757	0.19781	1.28208	0.27264	0.23560	1.22992	0.19656	-0.00678	1.19265	0.26538	-0.01535	1.52185	0.18177 
1808	15.058	0.28494	1.32415	0.21751	0.19766	1.28240	0.27259	0.23552	1.23030	0.19653	-0.00680	1.19269	0.26536	-0.01538	1.52184	0.18175 
1809	15.067	0.28473	1.32457	0.21745	0.19750	1.28272	0.27254	0.23545	1.23065	0.19649	-0.00682	1.19272	0.26535	-0.01540	1.52183	0.18173 
1810	15.075	0.28453	1.32499	0.21739	0.19735	1.28303	0.27249	0.23537	1.23099	0.19645	-0.00684	1.19275	0.26533	-0.01543	1.52181	0.18171 
1811	15.083	0.28433	1.32540	0.21733	0.19720	1.28333	0.27243	0.23528	1.23132	0.19640	-0.00686	1.19278	0.26531	-0.01545	1.52179	0.18169 
1812	15.092	0.28413	1.32581	0.21727	0.19705	1.28362	0.27237	0.23520	1.23165	0.19635	-0.00687	1.19281	0.26530	-0.01547	1.52178	0.18168 
1813	15.100	0.28393	1.32621	0.21719	0.19690	1.28391	0.27230	0.23511	1.23197	0.19629	-0.00688	1.19284	0.26528	-0.01549	1.52176	0.18166 
1814	15.108	0.28372	1.32661	0.21711	0.19675	1.28420	0.27223	0.23502	1.23229	0.19623	-0.00690	1.19286	0.26526	-0.01550	1.52174	0.18165 
1815	15.117	0.28350	1.32701	0.21702	0.19659	1.28449	0.27215	0.23493	1.23262	0.19617	-0.00691	1.19289	0.26524	-0.01551	1.52172	0.18164 
1816	15.125	0.28329	1.32741	0.21691	0.19644	1.28478	0.27206	0.23484	1.23296	0.19610	-0.00693	1.19292	0.26522	-0.01552	1.52170	0.18163 
1817	15.133	0.28306	1.32781	0.21680	0.19628	1.28507	0.27197	0.23474	1.23331	0.19602	-0.00694	1.19294	0.26519	-0.01554	1.52168	0.18162 
1818	15.142	0.28284	1.32821	0.21669	0.19613	1.28537	0.27187	0.23463	1.23367	0.19593	-0.00696	1.19297	0.26517	-0.01554	1.52166	0.18161 
1819	15.150	0.28261	1.32861	0.21656	0.19597	1.28566	0.27177	0.23452	1.23402	0.19584	-0.00698	1.19300	0.26514	-0.01556	1.52165	0.18160 
1820	15.158	0.28238	1.32900	0.21643	0.19581	1.28596	0.27166	0.23441	1.23434	0.19574	-0.00699	1.19303	0.26512	-0.01557	1.52163	0.18159 
1821	15.167	0.28215	1.32939	0.21630	0.19566	1.28626	0.27155	0.23430	1.23464	0.19564	-0.00701	1.19306	0.26509	-0.01558	1.52161	0.18158 
1822	15.175	0.28192	1.32978	0.21617	0.19550	1.28656	0.27144	0.23419	1.23494	0.19554	-0.00703	1.19309	0.26507	-0.01559	1.52160	0.18157 
1823	15.183	0.28169	1.33016	0.21604	0.19534	1.28685	0.27133	0.23409	1.23524	0.19545	-0.00704	1.19312	0.26504	-0.01560	1.52158	0.18155 
1824	15.192	0.28147	1.33055	0.21591	0.19519	1.28715	0.27122	0.23399	1.23554	0.19536	-0.00706	1.19315	0.26502	-0.01561	1.52156	0.18154 
1825	15.200	0.28124	1.33093	0.21580	0.19503	1.28743	0.27112	0.23390	1.23585	0.19527	-0.00708	1.19318	0.26499	-0.01561	1.52154	0.18153 
1826	15.208	0.28102	1.33132	0.21569	0.19488	1.28772	0.27102	0.23381	1.23618	0.19518	-0.00709	1.19322	0.26496	-0.01561	1.52153	0.18152 
1827	15.217	0.28080	1.33171	0.21559	0.19474	1.28799	0.27093	0.23372	1.23652	0.19509	-0.00711	1.19325	0.26493	-0.01561	1.52151	0.18151 
1828	15.225	0.28058	1.33210	0.21549	0.19459	1.28827	0.27085	0.23363	1.23686	0.19501	-0.00713	1.19327	0.26491	-0.01561	1.52149	0.18149 
1829	15.233	0.28037	1.33250	0.21538	0.19444	1.28855	0.27076	0.23353	1.23721	0.19492	-0.00714	1.19330	0.26488	-0.01560	1.52148	0.18148 
1830	15.242	0.28015	1.33290	0.21528	0.19429	1.28882	0.27068	0.23343	1.23754	0.19484	-0.00717	1.19333	0.26485	-0.01560	1.52146	0.18147 
